<?xml version="1.0" encoding="utf-8"?>
<!-- Generator: Adobe Illustrator 16.0.0, SVG Export Plug-In . SVG Version: 6.00 Build 0)  -->
<!DOCTYPE svg PUBLIC "-//W3C//DTD SVG 1.1//EN" "http://www.w3.org/Graphics/SVG/1.1/DTD/svg11.dtd">
<svg version="1.1" id="Capa_1" xmlns="http://www.w3.org/2000/svg" xmlns:xlink="http://www.w3.org/1999/xlink" x="0px" y="0px"
	 width="595.28px" height="841.89px" viewBox="0 0 595.28 841.89" enable-background="new 0 0 595.28 841.89" xml:space="preserve">
<path fill-rule="evenodd" clip-rule="evenodd" d="M298.316,324.197c-0.074-1.12-0.828-1.565-1.314-2.148
	c-4.145-4.972-6.168-10.769-6.768-17.134c-1.073-11.388,1.754-22.056,6.126-32.399c2.058-4.869,4.695-9.453,7.693-13.817
	c1.209-1.76,1.212-1.77,0.032-3.571c-3.943-6.022-7.887-12.045-11.845-18.058c-2.507-3.81-4.89-7.693-7.189-11.633
	c-1.004-1.721-1.473-3.457-1.466-5.453c0.046-14.079-0.023-28.159,0.068-42.237c0.016-2.354-0.572-4.149-2.381-5.668
	c-1.403-1.18-2.604-2.597-3.923-3.879c-0.877-0.853-0.827-1.631,0.017-2.465c1.878-1.855,3.705-3.764,5.616-5.583
	c1.128-1.073,1.508-1.062,2.633,0.017c1.905,1.827,3.772,3.695,5.599,5.601c1.066,1.112,1.041,1.411-0.089,2.591
	c-1.493,1.56-3.011,3.1-4.582,4.581c-0.999,0.941-1.483,2.011-1.496,3.382c-0.041,4.501,0.302,8.938,1.724,13.255
	c3.229,9.807,6.537,19.577,11.474,28.701c4.357,8.053,9.49,15.559,15.682,22.324c0.27,0.295,0.532,0.598,0.816,0.878
	c1.563,1.538,1.884,1.481,3.443-0.177c11.555-12.286,19.354-26.753,24.794-42.594c0.883-2.572,1.681-5.174,2.594-7.735
	c1.769-4.962,2.344-10.092,2.379-15.325c0.008-1.145-0.308-1.968-1.119-2.742c-1.621-1.545-3.169-3.166-4.758-4.745
	c-0.731-0.727-0.976-1.484-0.139-2.271c1.979-1.861,3.534-4.129,5.718-5.804c0.945-0.725,1.65-0.786,2.486,0.066
	c1.849,1.884,3.761,3.708,5.581,5.617c1.069,1.121,1.069,1.528,0.027,2.646c-1.473,1.579-2.971,3.146-4.577,4.584
	c-1.372,1.228-1.831,2.638-1.824,4.45c0.05,13.999-0.01,27.999,0.061,41.998c0.013,2.418-0.552,4.521-1.779,6.581
	c-5.655,9.486-11.903,18.588-17.907,27.848c-0.305,0.47-0.581,0.965-0.939,1.391c-0.968,1.151-0.916,2.195-0.046,3.446
	c1.415,2.032,2.715,4.151,3.958,6.294c5.244,9.042,8.564,18.774,9.848,29.126c0.872,7.036,0.568,14.04-2.193,20.751
	c-1.173,2.853-2.93,5.309-4.831,7.689c-0.337,0.422-0.864,0.733-0.877,1.68c1.449,0.113,2.914,0.173,4.386-0.061
	c5.614-0.893,10.483-3.312,14.63-7.196c2.576-2.414,4.909-5.041,6.938-7.935c5.192-7.409,10.143-14.961,13.838-23.263
	c1.44-3.234,2.313-6.639,3.169-10.054c0.915-3.646,1.668-7.333,2.851-10.908c0.2-0.608,0.398-1.217,0.623-1.816
	c0.746-1.995,2.219-3.199,4.303-3.306c2.101-0.108,3.653,1.039,4.61,2.889c1.123,2.171,1.516,4.538,1.676,6.947
	c0.238,3.561-0.365,7.032-1.37,10.414c-0.622,2.094-0.529,4.013,0.125,6.088c1.559,4.948,3.939,9.43,7.087,13.523
	c0.926,1.204,1.967,2.309,3.101,3.332c5.952,5.365,12.881,5.434,20.532,1.58c4.391-2.211,7.879-5.676,11.211-9.287
	c5.72-6.201,10.129-13.385,15.27-20.015c10.849-13.992,23.943-25.27,40.133-32.745c7.315-3.378,14.938-5.706,22.926-6.759
	c3.294-0.434,6.545-0.05,9.671,1.156c1.933,0.746,3.217,2.092,3.632,4.137c0.392,1.935-0.063,3.604-1.639,4.956
	c-3.641,3.119-7.239,6.287-10.841,9.452c-1.08,0.949-2.128,1.938-3.166,2.934c-3.287,3.153-6.663,6.221-9.824,9.496
	c-8.603,8.914-16.961,18.055-24.538,27.871c-11.625,15.061-21.793,31.005-28.959,48.716c-4.096,10.122-7.125,20.54-8.354,31.435
	c-0.375,3.32-0.44,3.323-3.889,3.323c-77.516,0.002-155.031,0.001-232.547,0.001c-0.24,0-0.48,0.002-0.72-0.001
	c-2.584-0.041-2.902-0.241-3.17-2.813c-0.918-8.801-3.074-17.303-5.992-25.634c-3.475-9.923-8.027-19.345-13.297-28.424
	c-8.058-13.881-17.563-26.713-28.118-38.791c-5.527-6.325-11.185-12.526-17.171-18.416c-6.669-6.563-13.582-12.866-20.766-18.869
	c-3.526-2.946-2.978-7.624,1.17-9.57c3.187-1.496,6.589-1.844,10.082-1.297c15.291,2.397,28.792,8.872,41.106,18.04
	c10.833,8.066,19.659,18.013,27.22,29.141c3.784,5.569,7.99,10.794,12.75,15.567c1.872,1.876,3.916,3.542,6.085,5.047
	c4.572,3.172,9.715,4.044,15.107,3.326c4.005-0.534,7.124-2.896,9.586-5.932c3.789-4.669,7.16-9.612,8.673-15.591
	c0.388-1.53,0.487-2.943,0.037-4.463c-1.144-3.858-1.764-7.792-1.483-11.838c0.134-1.936,0.522-3.792,1.346-5.561
	c0.961-2.064,2.5-3.423,4.805-3.373c2.258,0.048,3.65,1.613,4.38,3.579c0.833,2.242,1.455,4.569,2.061,6.888
	c1.252,4.793,2.096,9.699,3.956,14.325c2.37,5.892,5.625,11.313,9.009,16.648c2.827,4.457,5.788,8.825,9.268,12.823
	c4.68,5.376,10.371,8.948,17.461,10.165C295.185,324.406,296.729,324.372,298.316,324.197z M247.884,293.385
	c-0.176,0.142-0.354,0.216-0.409,0.343c-0.251,0.587-0.477,1.185-0.695,1.785c-1.537,4.234-3.522,8.239-6.205,11.866
	c-3.199,4.324-7.045,7.942-12.255,9.622c-9.257,2.985-17.67,0.923-25.308-4.801c-4.327-3.242-7.788-7.335-11.014-11.632
	c-3.985-5.307-7.891-10.676-11.934-15.938c-6.494-8.45-13.568-16.375-21.705-23.3c-5.136-4.372-10.629-8.214-16.785-11.038
	c-0.513-0.235-1.017-0.657-1.906-0.448c0.44,0.367,0.664,0.588,0.919,0.762c5.159,3.518,10.047,7.375,14.809,11.418
	c8.438,7.164,16.229,14.974,23.19,23.554c8.896,10.964,16.62,22.727,22.502,35.605c2.992,6.55,5.636,13.247,7.037,20.363
	c1.344,6.83,2.078,13.747,3.042,20.631c0.333,2.374,0.699,4.742,1.056,7.112c0.161,1.071,0.672,1.506,1.829,1.211
	c1.391-0.355,2.822-0.498,4.274-0.512c8.632-0.079,17.259-0.255,25.888,0.335c4.142,0.283,8.314,0.154,12.472,0.155
	c37.593,0.009,75.186,0.018,112.779-0.006c7.191-0.004,14.378-0.004,21.572-0.389c7.101-0.38,14.229-0.274,21.349-0.128
	c2.005,0.041,3.973,0.474,5.973,0.397c1.675-0.064,2.098-0.433,2.418-2.051c0.217-1.096,0.386-2.204,0.534-3.313
	c0.869-6.491,1.675-12.991,2.599-19.475c1.24-8.701,4.106-16.903,7.709-24.887c5.535-12.268,13.052-23.292,21.364-33.775
	c10.992-13.865,23.464-26.191,38.543-35.671c0.563-0.354,1.213-0.655,1.616-1.355c-0.302-0.016-0.472-0.075-0.596-0.024
	c-0.663,0.277-1.323,0.567-1.97,0.88c-7.193,3.484-13.514,8.22-19.348,13.623c-8.185,7.58-15.244,16.156-21.966,25.026
	c-4.007,5.288-7.646,10.855-12.012,15.871c-4.629,5.318-9.779,9.948-16.76,11.929c-9.337,2.65-17.707,1.141-24.763-5.93
	c-3.444-3.453-5.976-7.485-7.946-11.899c-0.871-1.952-1.646-3.946-2.523-6.065c-0.95,0.699-1.289,1.619-1.735,2.42
	c-1.635,2.938-3.412,5.787-5.298,8.568c-4.807,7.091-9.794,14.053-15.962,20.044c-9.1,8.839-20.019,11.843-32.437,9.774
	c-4.304-0.717-7.915-3.288-12.036-4.494c-0.22-0.064-0.399-0.262-0.603-0.39c-0.446-0.28-0.93-0.321-1.356-0.025
	c-2.453,1.703-5.639,1.716-8.06,3.523c-0.551,0.412-1.326,0.543-2.015,0.746c-5.083,1.498-10.271,1.591-15.452,0.841
	c-9.409-1.363-16.818-6.323-22.895-13.386c-6.792-7.895-12.956-16.256-18.053-25.369
	C248.945,294.752,248.657,293.879,247.884,293.385z M199.996,357.24c0.259-5.176-0.591-10.128-1.649-15.034
	c-2.952-13.682-8.479-26.301-16.104-38.002c-7.196-11.044-15.771-20.901-25.546-29.762c-7.25-6.57-14.913-12.568-23.047-17.983
	c-0.48-0.32-0.935-0.774-1.691-0.818c0.3,0.833,0.868,1.172,1.34,1.584c6.218,5.425,11.949,11.33,17.281,17.623
	c7.25,8.555,13.772,17.642,19.843,27.064c9.676,15.02,18.108,30.716,25.646,46.904C197.376,351.625,198.686,354.432,199.996,357.24z
	 M501.02,255.96c-0.092-0.113-0.184-0.227-0.275-0.34c-0.277,0.15-0.566,0.283-0.829,0.454
	c-9.545,6.202-18.378,13.311-26.653,21.107c-5.242,4.938-10.056,10.284-14.541,15.921c-12.66,15.915-21.467,33.625-25.036,53.774
	c-0.623,3.521-1.001,7.067-1.254,10.724c0.766-0.26,0.729-0.819,0.89-1.237c0.598-1.566,1.04-3.184,1.745-4.719
	c4.039-8.791,8.327-17.454,12.92-25.971c10.118-18.765,21.5-36.683,35.449-52.87c3.175-3.685,6.318-7.421,10.139-10.506
	C496.108,260.251,498.541,258.078,501.02,255.96z M308.098,301.529c-0.117,6.154,1.691,11.642,5.593,16.429
	c1.796,2.204,2.581,2.271,4.596,0.276c0.283-0.28,0.558-0.574,0.803-0.888c2.705-3.447,4.612-7.247,5.373-11.612
	c0.515-2.956,0.366-5.865-0.035-8.814c-0.985-7.243-3.788-13.832-7.133-20.229c-0.557-1.065-1.033-1.032-1.655,0.083
	c-1.402,2.514-2.592,5.137-3.656,7.808C309.812,290.028,308.158,295.6,308.098,301.529z M326.551,312.616
	c0.201,0.087,0.402,0.173,0.604,0.26c1.113-2.085,2.299-4.137,3.326-6.264c2.289-4.735,2.35-9.693,1.351-14.752
	c-1.729-8.748-5.507-16.641-10.033-24.226c-0.067-0.114-0.266-0.15-0.494-0.269c-0.987,0.583-1.244,1.754-1.905,2.612
	c-1.319,1.711-1.322,3.38-0.386,5.346c2.027,4.252,3.956,8.561,5.539,13.002c1.964,5.511,3.533,11.101,3.351,17.058
	C327.827,307.875,327.286,310.252,326.551,312.616z M306.177,312.725c-1.842-6.451-1.39-12.821,0.253-19.165
	c1.749-6.755,4.612-13.083,7.575-19.367c0.303-0.643,0.912-1.259,0.625-1.991c-0.709-1.807-1.533-3.569-3.219-5.023
	c-4.657,7.948-8.61,15.916-10.302,24.833c-0.689,3.639-0.884,7.283-0.097,10.936C301.813,306.664,303.228,310.064,306.177,312.725z
	 M204.699,357.424c0.428-17.934-5.375-33.913-15.201-48.631C197.293,324.148,202.327,340.368,204.699,357.424z M443.58,308.861
	c-11.182,15.563-16.694,36.31-15.158,49.659C430.107,340.752,435.2,324.31,443.58,308.861z M307.542,252.78
	c0.698-0.18,0.823-0.943,1.316-1.314c1.193-0.899,1.026-1.835,0.174-2.844c-0.257-0.305-0.474-0.644-0.717-0.961
	c-4.421-5.776-8.837-11.557-12.811-17.659c-0.24-0.369-0.365-0.917-0.977-0.927C295.008,231.857,305.081,250.205,307.542,252.78z
	 M339.214,228.34c-0.112-0.058-0.225-0.115-0.337-0.172c-0.17,0.155-0.382,0.281-0.502,0.467
	c-4.435,6.851-9.317,13.377-14.304,19.83c-0.339,0.438-0.663,0.922-0.85,1.437c-0.287,0.792,0.516,2.338,1.31,2.571
	c0.977,0.287,1.148-0.625,1.565-1.152c0.098-0.124,0.158-0.277,0.239-0.415c3.457-5.848,6.938-11.681,10.354-17.552
	C337.63,231.74,338.378,230.015,339.214,228.34z M152.406,265.346c-9.382-8.539-20.142-14.753-32.253-18.625
	C131.429,252.009,142.271,258.039,152.406,265.346z M480.129,265.355c0.839,0.145,1.063-0.105,1.307-0.289
	c8.908-6.691,18.363-12.44,28.661-16.757c0.962-0.403,1.945-0.838,2.643-1.684C500.734,250.663,489.947,256.793,480.129,265.355z
	 M316.201,269.354c1.158-1.699,1.59-3.438,2.744-4.733c0.053-0.059,0.104-0.126,0.128-0.199c0.076-0.221,0.188-0.444,0.196-0.67
	c0.023-0.677-2.23-4.131-2.692-4.04c-1.179,0.233-1.239,1.51-1.892,2.25c-0.311,0.352-0.52,0.793-0.768,1.197
	c-0.312,0.509-0.372,1.044-0.097,1.583C314.564,266.199,315.32,267.649,316.201,269.354z"/>
<path fill-rule="evenodd" clip-rule="evenodd" d="M144.495,492.624c2.002-3.17,3.83-6.06,5.653-8.951
	c5.466-8.667,11.443-16.973,17.729-25.058c1.245-1.601,2.262-3.256,2.872-5.206c2.223-7.107,4.904-14.062,8.176-20.736
	c2.881-5.877,6.04-11.657,10.886-16.267c1.173-1.116,2.432-2.076,3.933-2.694c2.271-0.936,4.467-0.36,6.001,1.571
	c1.299,1.635,1.792,3.535,1.852,5.589c0.135,4.649-1.598,8.79-3.656,12.78c-4.774,9.256-11.077,17.414-18.694,24.471
	c-2.189,2.028-3.426,4.21-4.231,6.963c-1.796,6.145-3.355,12.346-4.872,18.562c-0.13,0.532-0.344,1.071-0.115,1.646
	c0.655,0.211,0.782-0.39,1.024-0.718c4.24-5.737,8.901-11.102,14.112-15.98c1.823-1.706,3.871-3.087,6.098-4.212
	c0.959-0.485,1.926-0.646,3.011-0.498c2.726,0.371,4.015,1.523,4.351,4.247c0.226,1.829,0.101,3.664-0.207,5.494
	c-0.957,5.686-2.664,11.203-3.727,16.862c-0.309,1.647-0.61,3.31-0.715,4.978c-0.094,1.501,0.395,1.769,1.718,1.091
	c3.342-1.71,5.772-4.493,8.374-7.098c2.984-2.986,4.641-6.469,5.455-10.644c1.46-7.489,4.732-14.416,7.45-21.505
	c0.77-2.007,2.882-2.746,5.001-1.969c2.159,0.793,3.216,2.582,2.597,4.695c-0.561,1.916-1.247,3.8-1.975,5.66
	c-2.154,5.511-4.489,10.958-5.839,16.747c-0.399,1.71-0.869,3.423-0.732,5.206c0.118,1.534,0.623,1.845,2.019,1.223
	c1.698-0.756,3.13-1.937,4.549-3.099c4.266-3.497,8.474-7.063,12.734-10.566c0.955-0.785,1.601-1.765,2.226-2.793
	c2.707-4.454,6.219-8.104,10.757-10.724c0.484-0.279,0.961-0.577,1.465-0.818c2.487-1.188,4.354-0.716,5.705,1.642
	c0.637,1.111,1.042,1.965,2.386,0.807c0.652-0.562,1.516-0.39,2.31-0.211c2.079,0.464,3.934,1.386,5.428,2.904
	c1.959,1.993,4.221,2.49,6.991,2.201c5.423-0.564,9.867-3.034,13.951-6.396c1.913-1.575,3.798-3.185,5.719-4.749
	c1.293-1.054,2.67-1.852,4.354-0.783c1.48,0.938,2.221,2.896,1.671,4.873c-0.878,3.158-1.88,6.281-2.811,9.425
	c-0.418,1.414-0.791,2.841-0.98,4.341c2.106-2.858,4.084-5.736,6.333-8.416c3.243-3.864,6.547-7.654,10.904-10.352
	c1.254-0.776,2.572-1.264,4.022-1.455c3.05-0.402,5.368,1.328,5.763,4.379c0.186,1.434,0.05,2.867-0.164,4.301
	c-0.711,4.771-2.373,9.29-3.649,13.911c-0.576,2.085-1.098,4.184-0.982,6.373c0.113,2.139,0.595,2.492,2.669,2.213
	c2.353-0.317,4.439-1.282,6.45-2.472c0.964-0.569,1.906-1.187,2.914-1.667c1.715-0.817,3.491-0.259,4.605,1.352
	c1.061,1.532,0.955,2.803-0.575,4.256c-3.176,3.016-6.869,5.251-11.019,6.622c-3.714,1.228-7.698-0.332-9.839-3.609
	c-1.304-1.998-1.898-4.21-2.004-6.571c-0.288-6.502,1.049-12.712,3.366-18.746c0.081-0.213,0.119-0.442,0.301-1.134
	c-1.416,0.971-2.195,2.021-3.03,3.003c-3.27,3.841-6.215,7.931-9.128,12.04c-3.792,5.351-7.498,10.761-11.253,16.138
	c-0.916,1.311-1.822,2.634-2.835,3.868c-0.917,1.115-2.163,1.716-3.625,1.314c-1.57-0.432-2.255-1.684-2.529-3.195
	c-0.19-1.056,0.104-2.063,0.341-3.076c1.768-7.552,3.975-14.985,6.042-22.574c-0.734-0.251-1.19,0.296-1.678,0.602
	c-4.369,2.736-9.144,4.273-14.271,4.432c-2.52,0.078-2.408,0.212-2.72,2.58c-0.48,3.639-1.688,7.005-3.56,10.113
	c-4.408,7.317-10.749,11.48-19.473,11.482c-6.747,0.002-11.324-4.073-12.244-10.77c-0.075-0.547,0.032-1.129-0.32-1.657
	c-0.879-0.353-1.264,0.443-1.775,0.854c-3.438,2.766-7.024,5.292-11.043,7.163c-1.387,0.646-2.813,1.151-4.325,1.39
	c-2.247,0.354-4.272-0.062-6.014-1.65c-1.201-1.095-1.247-1.054-2.469,0.178c-1.409,1.419-2.782,2.875-4.221,4.262
	c-1.678,1.617-3.516,3.031-5.671,3.971c-1.33,0.58-2.711,0.99-4.185,0.878c-3.918-0.301-5.902-2.087-6.695-5.991
	c-0.404-1.986-0.355-3.968-0.017-5.961c0.819-4.817,2.175-9.509,3.31-14.253c0.403-1.685,0.754-3.383,1.129-5.074
	c-0.137-0.097-0.275-0.193-0.412-0.289c-1.086,0.886-2.215,1.725-3.25,2.665c-5.006,4.552-8.987,9.965-12.889,15.44
	c-2.552,3.581-5.038,7.211-7.603,10.783c-1.288,1.795-2.322,2.137-4.059,1.566c-1.604-0.526-2.42-1.68-2.481-3.692
	c-0.115-3.86,0.55-7.65,1.184-11.434c0.683-4.071,0.935-8.233,2.669-12.095c-0.774-0.195-0.894,0.273-1.091,0.558
	c-4.971,7.162-9.918,14.341-14.179,21.961c-0.468,0.838-0.889,1.704-1.393,2.52c-0.679,1.1-0.715,2.211-0.405,3.447
	c0.779,3.102,1.562,6.207,2.171,9.345c0.809,4.164,1.41,8.359,0.607,12.615c-0.76,4.03-2.178,7.709-5.579,10.285
	c-4.279,3.242-9.488,2.078-11.965-2.693c-1.72-3.311-2.004-6.871-1.517-10.518c0.739-5.526,2.643-10.696,4.886-15.755
	c0.81-1.827,1.691-3.624,2.571-5.419c0.328-0.671,0.576-1.354,0.352-2.076c-1.32-4.255-2.588-8.523-3.362-13.091
	c-1.172,0.504-1.74,1.297-2.383,1.962c-2.458,2.545-5.154,4.79-8.161,6.655c-1.985,1.23-4.067,2.216-6.413,2.563
	c-3.48,0.515-6.12-0.943-7.503-4.177c-0.729-1.704-0.979-3.508-0.922-5.574c-1.378,0.399-2.127,1.241-2.912,1.973
	c-1.469,1.368-3.046,2.591-4.717,3.692c-1.954,1.288-4.057,2.232-6.37,2.688c-3.674,0.721-6.854-0.916-8.427-4.342
	c-1.4-3.045-1.347-6.277-0.853-9.433c1.374-8.775,5.071-16.447,11.447-22.736c1.84-1.815,3.945-3.236,6.289-4.331
	c3.957-1.85,7.908-1.717,11.83,0.028c2.899,1.29,5.32,3.228,7.226,5.779c0.972,1.302,1.604,2.769,1.905,4.362
	c0.428,2.268-0.035,3.335-2.053,4.588c-0.569,0.354-1.036,0.708-1.275,1.351c-1.617,4.34-3.597,8.556-4.455,13.156
	c-0.208,1.112-0.321,2.224-0.178,3.338c0.171,1.341,0.601,1.594,1.943,1.321c2.203-0.448,3.963-1.721,5.564-3.173
	c3.263-2.958,6.304-6.134,8.911-9.702c0.952-1.304,1.721-2.682,2.156-4.252c1.418-5.125,4.611-9.035,8.538-12.454
	c0.989-0.861,1.98-1.368,3.253-0.76c1.498,0.715,2.732,1.714,3.062,3.442c0.181,0.949-0.398,1.677-1.006,2.336
	c-0.975,1.058-2.018,2.043-2.909,3.186c-4.194,5.375-4.804,11.534-3.954,17.992C143.424,489.137,143.532,490.757,144.495,492.624z
	 M254.439,467.028c-7.137,5.042-11.672,11.075-12.439,19.48c-0.131,1.438,0.219,2.867,0.77,4.202
	c0.559,1.354,1.547,2.115,3.112,2.196c2.399,0.124,4.584-0.424,6.601-1.698c4.74-2.995,7.737-7.23,9.156-12.653
	c0.899-3.437,0.595-4.226-2.581-5.387C256.406,472.198,254.434,470.669,254.439,467.028z M111.825,463.722
	c-2.668,0.285-5.133,1.179-7.137,3.021c-6.185,5.686-9.155,12.946-10.059,21.138c-0.242,2.197,0.654,2.721,2.754,1.819
	c0.799-0.343,1.556-0.817,2.267-1.325c2.223-1.587,4.083-3.562,5.869-5.613c3.775-4.337,7.29-8.885,10.893-13.36
	c1.641-2.039,1.654-2.444-0.379-4.124C114.82,464.277,113.429,463.75,111.825,463.722z M142.271,513.004
	c-2.513,4.853-4.162,9.529-4.443,14.611c-0.051,0.924,0.238,1.901,0.533,2.801c0.371,1.133,0.994,1.294,2.02,0.656
	c1.076-0.667,1.627-1.719,2.026-2.871C144.115,523.273,143.7,518.363,142.271,513.004z M194.218,422.553
	c-4.457,5.699-7.63,12.118-10.445,18.735C187.905,435.413,191.89,429.456,194.218,422.553z"/>
<path fill-rule="evenodd" clip-rule="evenodd" d="M548.873,489.974c3.291-3.152,5.807-6.252,8.477-9.207
	c1.553-1.72,3.045-3.494,4.563-5.246c1.437-1.658,2.208-1.906,3.68-1.178c1.661,0.823,2.659,2.688,2.317,4.34
	c-0.165,0.799-0.588,1.482-0.986,2.175c-1.846,3.208-4.208,6.026-6.647,8.783c-2.437,2.753-4.84,5.539-7.375,8.198
	c-1.089,1.141-1.251,2.207-0.861,3.674c1.128,4.251,2.064,8.556,2.59,12.926c0.529,4.4,0.533,8.793-1.156,13.007
	c-1.189,2.965-2.91,5.499-5.848,7.032c-4.567,2.384-9.242,0.969-11.576-3.626c-1.913-3.767-2.28-7.799-1.655-11.926
	c0.886-5.855,3.265-11.179,5.976-16.375c0.407-0.779,0.705-1.66,1.271-2.303c1.84-2.087,1.703-4.33,0.788-6.709
	c-0.424-1.101-0.506-2.325-1.072-3.317c-0.857-0.154-1.032,0.513-1.382,0.888c-3.612,3.881-7.509,7.414-12.128,10.084
	c-1.321,0.765-2.695,1.411-4.155,1.851c-3.765,1.135-6.163,0.013-7.681-3.65c-1.022-2.467-1.363-5.093-1.491-7.735
	c-0.116-2.396-0.185-4.801,0.138-7.188c0.157-1.162-0.32-1.649-1.445-1.615c-0.56,0.017-1.119,0.025-1.68,0.027
	c-5.986,0.021-10.609-3.11-12.834-8.668c-0.352-0.879-0.469-1.856-1.153-2.76c-0.852,0.504-0.925,1.437-1.229,2.177
	c-3.399,8.286-6.714,16.609-10.852,24.57c-1.071,2.062-2.228,4.069-3.689,5.885c-0.776,0.965-1.655,1.809-3.035,1.518
	c-1.468-0.31-2.383-1.288-2.768-2.702c-0.686-2.52-0.396-5.083-0.217-7.633c0.167-2.373,0.381-4.743,0.573-7.105
	c-1.039-0.266-1.416,0.496-1.936,0.914c-3.5,2.816-7.157,5.381-11.264,7.257c-1.541,0.705-3.135,1.227-4.822,1.372
	c-3.365,0.291-5.772-1.277-6.725-4.511c-0.947-3.211-0.763-6.51-0.226-9.753c1.143-6.902,3.483-13.456,6.053-19.934
	c0.767-1.933,1.669-3.827,2.236-5.817c0.585-2.05,3.118-3.104,5.036-2.424c2.345,0.831,3.4,2.67,2.697,5.054
	c-1.381,4.688-3.482,9.109-5.145,13.696c-1.337,3.692-2.533,7.419-3.177,11.298c-0.205,1.232-0.741,2.841,0.395,3.602
	c1.188,0.796,2.351-0.496,3.366-1.178c3.33-2.231,6.177-5.065,9.287-7.573c1.493-1.205,2.917-2.506,4.479-3.612
	c1.539-1.09,2.33-2.502,2.745-4.31c1.544-6.729,3.794-13.218,6.913-19.387c0.61-1.209,1.285-2.406,2.087-3.494
	c1.18-1.6,2.891-1.977,4.438-1.154c1.641,0.871,2.344,2.67,1.678,4.511c-0.298,0.821-0.739,1.595-1.153,2.369
	c-3.746,7.004-5.598,14.603-7.014,22.337c-0.039,0.213-0.079,0.461,0.364,0.745c1.349-4.326,3.561-8.212,5.522-12.215
	c1.197-2.442,2.521-4.817,4.138-7.015c0.426-0.579,0.85-1.169,1.343-1.688c1.853-1.953,3.854-1.778,5.402,0.441
	c0.563,0.809,0.793,1.727,0.956,2.686c0.349,2.059,0.435,4.133,0.467,6.213c0.029,1.854,0.379,3.651,0.939,5.414
	c0.628,1.976,2.002,3.054,4.033,3.233c1.77,0.156,3.499-0.179,5.194-0.675c1.009-0.295,1.263-1.154,1.435-2.033
	c0.414-2.119,0.771-4.249,1.202-6.364c3.174-15.549,7.481-30.766,13.479-45.478c1.934-4.743,4.039-9.407,7.084-13.576
	c0.758-1.038,1.575-2.022,2.598-2.808c1.892-1.452,3.722-1.248,5.261,0.6c1.162,1.396,1.652,3.078,1.959,4.833
	c0.677,3.87,0.02,7.653-0.829,11.396c-2.697,11.894-7.557,22.899-13.85,33.303c-1.492,2.466-3.03,4.901-4.812,7.167
	c-0.918,1.168-1.419,2.449-1.717,3.895c-1.388,6.737-2.699,13.484-3.575,20.311c-0.348,2.708-0.309,5.43-0.217,8.146
	c0.052,1.51,0.43,1.717,1.795,1.104c2.764-1.238,4.894-3.295,6.864-5.521c2.763-3.122,5.137-6.533,7.397-10.03
	c0.722-1.116,1.12-2.255,1.095-3.594c-0.154-8.004,3.396-14.306,9.098-19.594c1.802-1.67,3.21-1.717,4.841-0.229
	c1.765,1.61,2.002,3.211,0.626,5.07c-0.661,0.894-1.5,1.656-2.256,2.48c-2.84,3.092-4.651,6.664-5.112,10.879
	c-0.07,0.644-0.158,1.267,0.11,1.884c0.402,0.926,0.264,1.869,0.129,2.83C546.74,482.833,547.906,486.148,548.873,489.974z
	 M546.306,508.206c-2.72,3.895-5.026,10.229-5.277,14.279c-0.08,1.296,0.205,2.555,0.587,3.768c0.417,1.328,1.064,1.58,2.39,1.185
	c1.769-0.527,2.431-1.981,2.899-3.538c1.173-3.896,1.357-7.847,0.441-11.819C547.065,510.863,547.184,509.532,546.306,508.206z
	 M531.566,444.442c4.291-9.599,7.852-19.459,10.696-29.577C537.352,424.234,534.705,434.428,531.566,444.442z"/>
<path fill-rule="evenodd" clip-rule="evenodd" d="M447.569,450.185c-4.183,1.245-7.917,3.38-11.633,5.54
	c-3.529,2.052-6.91,4.336-10.237,6.699c-1.873,1.331-3.56,1.255-4.889-0.247c-1.245-1.408-1.336-3.923-0.115-5.306
	c0.523-0.592,1.164-1.099,1.813-1.559c10.713-7.6,22.329-13.415,34.795-17.541c1.144-0.379,2.287-0.672,3.518-0.638
	c1.425,0.041,2.457,0.65,3.103,1.891c0.701,1.349,0.602,2.773-0.421,3.805c-1.799,1.816-2.947,4.109-4.833,5.889
	c-3.05,2.877-5.043,6.605-7.051,10.241c-11.089,20.077-19.333,41.249-24.207,63.69c-1.173,5.399-1.834,10.891-2.068,16.401
	c-0.209,4.888,0.316,9.744,1.906,14.425c0.724,2.134,1.674,4.129,3.143,5.888c1.523,1.823,1.471,3.508,0.052,4.925
	c-1.482,1.481-3.392,1.503-5.167,0.03c-1.124-0.934-1.947-2.098-2.599-3.408c-2.722-5.472-3.794-11.356-4.256-17.364
	c-0.887-11.555,1.282-22.773,3.996-33.909c1.8-7.383,3.973-14.656,6.856-21.94c-0.925,0.084-1.26,0.762-1.707,1.217
	c-4.203,4.279-8.31,8.662-13.224,12.169c-3.805,2.716-7.783,5.054-12.481,5.869c-6.763,1.173-12.4-2.151-14.641-8.708
	c-1.475-4.315-1.789-8.761-1.195-13.267c0.739-5.6,2.52-10.894,4.812-16.03c4.696-10.528,11.174-19.928,18.331-28.893
	c5.598-7.013,11.685-13.586,18.267-19.673c7.232-6.688,14.842-12.908,23.462-17.787c3.079-1.743,6.279-3.161,9.668-4.18
	c1.477-0.444,2.961-0.642,4.493-0.61c5.149,0.106,8.636,4.708,7.37,9.753c-0.394,1.566-1.085,3.018-1.93,4.377
	c-4.313,6.939-9.695,12.893-16.402,17.604c-1.116,0.784-2.292,1.472-3.597,1.896c-2.118,0.69-3.928-0.047-4.814-1.938
	c-0.925-1.971-0.424-3.729,1.614-4.848c4.965-2.724,9.273-6.248,13.098-10.395c1.747-1.894,3.326-3.903,4.107-6.407
	c0.643-2.06-0.004-2.868-2.152-2.756c-1.467,0.076-2.8,0.625-4.114,1.224c-5.295,2.411-9.857,5.92-14.318,9.576
	c-6.261,5.129-12.066,10.751-17.536,16.698c-9.986,10.856-19.16,22.34-26.239,35.361c-2.989,5.499-5.553,11.182-6.76,17.374
	c-0.597,3.063-1.026,6.131-0.309,9.273c0.789,3.455,2.442,4.916,5.979,5.021c3.081,0.09,5.801-1.012,8.393-2.509
	c3.413-1.972,6.451-4.457,9.304-7.147c5.772-5.445,10.896-11.475,15.673-17.802c4.338-5.747,8.471-11.638,12.306-17.733
	C445.623,453.007,446.541,451.607,447.569,450.185z"/>
<path fill-rule="evenodd" clip-rule="evenodd" d="M53.95,476.813c-3.158,1.025-5.659,2.443-8.178,3.792
	c-3.106,1.663-6.081,3.542-8.634,6.017c-1.281,1.241-2.311,2.609-2.891,4.341c-0.631,1.882-1.813,2.577-3.614,2.374
	c-1.847-0.207-3.093-1.388-3.312-3.243c-0.195-1.652,0.319-3.149,1.145-4.569c1.82-3.127,4.572-5.308,7.43-7.381
	c5.212-3.782,10.969-6.593,16.853-9.104c2.174-0.928,3.231-2.205,3.705-4.475c2.547-12.226,5.825-24.257,9.94-36.053
	c1.311-3.757,2.711-7.48,4.459-11.09c-0.85-0.442-1.522-0.039-2.183,0.145c-11.563,3.208-23.079,6.561-34.03,11.569
	c-3.645,1.667-7.154,3.564-10.232,6.182c-1.933,1.643-3.058,3.584-2.924,6.243c0.14,2.765-1.086,4.452-3.072,4.63
	c-1.841,0.165-3.203-1.252-3.802-3.883c-0.839-3.688,0.354-6.756,2.794-9.476c3.313-3.69,7.394-6.32,11.738-8.604
	c9.891-5.198,20.395-8.804,31.072-11.949c4.372-1.288,8.756-2.538,13.159-3.713c1.412-0.377,2.446-1.06,3.176-2.315
	c1.134-1.951,2.617-3.627,4.256-5.168c0.233-0.219,0.46-0.447,0.708-0.647c1.833-1.481,3.644-1.781,5.063-0.849
	c1.42,0.933,1.908,2.643,1.412,4.927c-0.032,0.148-0.024,0.306-0.047,0.631c4.769-1.442,9.607-2.309,14.421-3.292
	c13.475-2.755,26.996-5.229,40.642-7.001c3.492-0.454,6.982-0.819,10.501-0.912c0.639-0.017,1.284-0.044,1.917,0.024
	c1.865,0.202,3.313,1.678,3.421,3.43c0.113,1.836-1.066,3.346-3.08,3.662c-1.891,0.296-3.816,0.367-5.72,0.589
	c-9.613,1.125-19.135,2.838-28.662,4.511c-12.761,2.24-25.424,4.959-38.087,7.688c-2.449,0.528-3.871,1.662-4.813,3.974
	c-2.479,6.085-4.521,12.311-6.315,18.619c-2.406,8.461-4.603,16.979-6.544,25.559c-0.053,0.234-0.141,0.462-0.181,0.697
	c-0.234,1.368,0.01,1.564,1.366,1.059c4.499-1.678,9.041-3.219,13.71-4.355c1.24-0.302,2.479-0.638,3.781-0.574
	c1.255,0.062,2.333,0.458,3.159,1.461c1.623,1.971,1.4,3.659-0.757,5.006c-1.366,0.853-2.91,1.312-4.442,1.774
	c-5.434,1.642-10.854,3.332-16.308,4.905c-1.892,0.546-2.888,1.486-3.284,3.546c-2.616,13.586-4.922,27.218-6.597,40.953
	c-0.687,5.632-1.434,11.257-1.482,16.948c-0.02,2.289-0.9,3.343-2.704,3.646c-2.027,0.342-3.512-0.538-4.285-2.602
	c-0.926-2.476-0.681-5.056-0.532-7.601c0.566-9.663,1.769-19.257,3.209-28.822c0.989-6.563,2.015-13.119,3.364-19.619
	C53.718,478.037,53.787,477.656,53.95,476.813z"/>
<path fill-rule="evenodd" clip-rule="evenodd" d="M221.121,446.169c0.104-0.439,0.249-1.224,0.475-1.983
	c1.178-3.973,2.374-7.937,3.089-12.033c0.347-1.983,1.826-2.965,3.806-2.813c3.244,0.25,5.323,3.015,4.395,5.963
	c-1.223,3.887-2.491,7.736-4.489,11.303c-0.426,0.761-0.939,1.489-1.511,2.146c-1.183,1.359-2.271,1.673-3.577,1.154
	C221.911,449.351,221.121,448.127,221.121,446.169z"/>
<path fill-rule="evenodd" clip-rule="evenodd" d="M471.216,429.384c3.163,0.044,5.545,2.781,4.532,6.009
	c-1.101,3.505-2.298,6.958-3.917,10.253c-0.631,1.283-1.39,2.52-2.45,3.513c-0.857,0.804-1.832,1.269-3.046,0.805
	c-1.208-0.463-1.988-1.289-2.251-2.571c-0.199-0.971,0.013-1.895,0.306-2.816c1.281-4.026,2.371-8.1,3.135-12.261
	C467.906,430.237,469.176,429.295,471.216,429.384z"/>
<path fill-rule="evenodd" clip-rule="evenodd" fill="none" d="M247.884,293.385c0.773,0.494,1.061,1.367,1.474,2.105
	c5.097,9.113,11.26,17.474,18.053,25.369c6.077,7.063,13.486,12.023,22.895,13.386c5.18,0.75,10.369,0.657,15.452-0.841
	c0.688-0.203,1.464-0.334,2.015-0.746c2.421-1.807,5.606-1.82,8.06-3.523c0.427-0.296,0.91-0.254,1.356,0.025
	c0.203,0.128,0.383,0.325,0.603,0.39c4.121,1.207,7.732,3.777,12.036,4.494c12.418,2.069,23.337-0.935,32.437-9.774
	c6.168-5.991,11.155-12.953,15.962-20.044c1.886-2.782,3.663-5.63,5.298-8.568c0.446-0.801,0.785-1.721,1.735-2.42
	c0.878,2.12,1.652,4.114,2.523,6.065c1.971,4.414,4.502,8.446,7.946,11.899c7.056,7.071,15.426,8.58,24.763,5.93
	c6.98-1.98,12.131-6.61,16.76-11.929c4.366-5.016,8.005-10.583,12.012-15.871c6.722-8.87,13.781-17.446,21.966-25.026
	c5.834-5.403,12.154-10.139,19.348-13.623c0.646-0.313,1.307-0.603,1.97-0.88c0.124-0.051,0.294,0.008,0.596,0.024
	c-0.403,0.7-1.053,1.001-1.616,1.355c-15.079,9.479-27.551,21.806-38.543,35.671c-8.313,10.483-15.829,21.508-21.364,33.775
	c-3.603,7.984-6.469,16.187-7.709,24.887c-0.924,6.483-1.729,12.983-2.599,19.475c-0.148,1.108-0.317,2.216-0.534,3.313
	c-0.32,1.618-0.743,1.987-2.418,2.051c-2,0.077-3.968-0.356-5.973-0.397c-7.119-0.146-14.248-0.251-21.349,0.128
	c-7.194,0.385-14.381,0.385-21.572,0.389c-37.593,0.024-75.186,0.015-112.779,0.006c-4.158-0.001-8.33,0.128-12.472-0.155
	c-8.629-0.59-17.256-0.414-25.888-0.335c-1.452,0.014-2.883,0.156-4.274,0.512c-1.157,0.294-1.667-0.14-1.829-1.211
	c-0.357-2.37-0.723-4.739-1.056-7.112c-0.964-6.884-1.698-13.801-3.042-20.631c-1.4-7.117-4.045-13.813-7.037-20.363
	c-5.882-12.878-13.606-24.641-22.502-35.605c-6.961-8.58-14.752-16.39-23.19-23.554c-4.761-4.043-9.649-7.901-14.809-11.418
	c-0.255-0.174-0.479-0.395-0.919-0.762c0.889-0.209,1.393,0.213,1.906,0.448c6.156,2.824,11.649,6.666,16.785,11.038
	c8.136,6.925,15.21,14.85,21.705,23.3c4.043,5.262,7.949,10.63,11.934,15.938c3.226,4.297,6.687,8.39,11.014,11.632
	c7.638,5.724,16.051,7.786,25.308,4.801c5.21-1.68,9.057-5.298,12.255-9.622c2.683-3.627,4.668-7.632,6.205-11.866
	c0.218-0.6,0.444-1.198,0.695-1.785C247.53,293.601,247.708,293.527,247.884,293.385z"/>
<path fill-rule="evenodd" clip-rule="evenodd" fill="none" d="M199.996,357.24c-1.31-2.808-2.62-5.615-3.928-8.424
	c-7.538-16.188-15.97-31.884-25.646-46.904c-6.071-9.422-12.594-18.51-19.843-27.064c-5.332-6.292-11.063-12.197-17.281-17.623
	c-0.473-0.412-1.04-0.751-1.34-1.584c0.756,0.044,1.211,0.499,1.691,0.818c8.134,5.415,15.798,11.413,23.047,17.983
	c9.776,8.86,18.35,18.718,25.546,29.762c7.625,11.701,13.152,24.32,16.104,38.002C199.405,347.112,200.255,352.064,199.996,357.24z"
	/>
<path fill-rule="evenodd" clip-rule="evenodd" fill="none" d="M501.02,255.96c-2.479,2.118-4.911,4.292-7.446,6.338
	c-3.82,3.085-6.964,6.821-10.139,10.506c-13.949,16.187-25.331,34.104-35.449,52.87c-4.593,8.517-8.881,17.18-12.92,25.971
	c-0.705,1.535-1.147,3.152-1.745,4.719c-0.16,0.418-0.124,0.977-0.89,1.237c0.253-3.657,0.631-7.202,1.254-10.724
	c3.569-20.148,12.376-37.859,25.036-53.774c4.485-5.637,9.299-10.983,14.541-15.921c8.275-7.797,17.108-14.905,26.653-21.107
	c0.263-0.171,0.552-0.304,0.829-0.454C500.836,255.733,500.928,255.847,501.02,255.96z"/>
<path fill-rule="evenodd" clip-rule="evenodd" fill="none" d="M308.098,301.529c0.061-5.93,1.714-11.501,3.885-16.946
	c1.064-2.671,2.254-5.294,3.656-7.808c0.622-1.115,1.099-1.149,1.655-0.083c3.345,6.398,6.147,12.986,7.133,20.229
	c0.401,2.949,0.55,5.858,0.035,8.814c-0.761,4.365-2.668,8.165-5.373,11.612c-0.245,0.313-0.52,0.607-0.803,0.888
	c-2.015,1.994-2.8,1.928-4.596-0.276C309.789,313.171,307.98,307.684,308.098,301.529z"/>
<path fill-rule="evenodd" clip-rule="evenodd" fill="none" d="M326.551,312.616c0.735-2.364,1.276-4.741,1.353-7.234
	c0.183-5.957-1.387-11.547-3.351-17.058c-1.583-4.442-3.512-8.75-5.539-13.002c-0.937-1.965-0.934-3.634,0.386-5.346
	c0.661-0.858,0.918-2.028,1.905-2.612c0.229,0.119,0.427,0.155,0.494,0.269c4.526,7.585,8.305,15.478,10.033,24.226
	c0.999,5.06,0.938,10.018-1.351,14.752c-1.027,2.127-2.213,4.179-3.326,6.264C326.953,312.79,326.752,312.703,326.551,312.616z"/>
<path fill-rule="evenodd" clip-rule="evenodd" fill="none" d="M306.177,312.725c-2.949-2.661-4.363-6.061-5.164-9.778
	c-0.787-3.653-0.593-7.296,0.097-10.936c1.691-8.917,5.645-16.885,10.302-24.833c1.686,1.454,2.51,3.216,3.219,5.023
	c0.287,0.732-0.322,1.349-0.625,1.991c-2.963,6.284-5.826,12.611-7.575,19.367C304.787,299.904,304.335,306.273,306.177,312.725z"/>
<path fill-rule="evenodd" clip-rule="evenodd" fill="none" d="M204.699,357.424c-2.372-17.056-7.406-33.276-15.201-48.631
	C199.324,323.511,205.127,339.49,204.699,357.424z"/>
<path fill-rule="evenodd" clip-rule="evenodd" fill="none" d="M443.58,308.861c-8.38,15.449-13.473,31.891-15.158,49.659
	C426.886,345.17,432.398,324.424,443.58,308.861z"/>
<path fill-rule="evenodd" clip-rule="evenodd" fill="none" d="M307.542,252.78c-2.461-2.575-12.534-20.923-13.014-23.706
	c0.612,0.009,0.736,0.558,0.977,0.927c3.974,6.102,8.39,11.883,12.811,17.659c0.243,0.317,0.46,0.656,0.717,0.961
	c0.853,1.009,1.02,1.945-0.174,2.844C308.365,251.837,308.24,252.601,307.542,252.78z"/>
<path fill-rule="evenodd" clip-rule="evenodd" fill="none" d="M339.214,228.34c-0.836,1.674-1.584,3.4-2.523,5.014
	c-3.416,5.871-6.897,11.704-10.354,17.552c-0.081,0.138-0.142,0.291-0.239,0.415c-0.417,0.527-0.589,1.439-1.565,1.152
	c-0.794-0.233-1.597-1.779-1.31-2.571c0.187-0.515,0.511-0.998,0.85-1.437c4.986-6.453,9.869-12.979,14.304-19.83
	c0.12-0.186,0.332-0.313,0.502-0.467C338.989,228.226,339.102,228.283,339.214,228.34z"/>
<path fill-rule="evenodd" clip-rule="evenodd" fill="none" d="M152.406,265.346c-10.134-7.307-20.977-13.337-32.253-18.625
	C132.264,250.593,143.024,256.807,152.406,265.346z"/>
<path fill-rule="evenodd" clip-rule="evenodd" fill="none" d="M480.129,265.355c9.818-8.562,20.605-14.692,32.61-18.729
	c-0.697,0.846-1.681,1.28-2.643,1.684c-10.298,4.317-19.753,10.066-28.661,16.757C481.191,265.25,480.968,265.5,480.129,265.355z"/>
<path fill-rule="evenodd" clip-rule="evenodd" fill="none" d="M316.201,269.354c-0.881-1.705-1.637-3.155-2.38-4.612
	c-0.275-0.538-0.215-1.074,0.097-1.583c0.248-0.404,0.457-0.846,0.768-1.197c0.652-0.74,0.713-2.017,1.892-2.25
	c0.462-0.091,2.716,3.363,2.692,4.04c-0.008,0.226-0.12,0.449-0.196,0.67c-0.024,0.073-0.075,0.141-0.128,0.199
	C317.791,265.917,317.359,267.655,316.201,269.354z"/>
<path fill-rule="evenodd" clip-rule="evenodd" fill="none" d="M254.439,467.028c-0.006,3.642,1.966,5.17,4.619,6.141
	c3.175,1.161,3.48,1.95,2.581,5.387c-1.419,5.423-4.416,9.658-9.156,12.653c-2.017,1.274-4.201,1.822-6.601,1.698
	c-1.565-0.081-2.553-0.843-3.112-2.196c-0.55-1.335-0.901-2.764-0.77-4.202C242.768,478.103,247.303,472.07,254.439,467.028z"/>
<path fill-rule="evenodd" clip-rule="evenodd" fill="none" d="M111.825,463.722c1.604,0.028,2.995,0.555,4.207,1.556
	c2.034,1.68,2.021,2.085,0.379,4.124c-3.603,4.476-7.118,9.023-10.893,13.36c-1.786,2.052-3.646,4.026-5.869,5.613
	c-0.71,0.508-1.468,0.982-2.267,1.325c-2.1,0.901-2.996,0.378-2.754-1.819c0.904-8.191,3.874-15.452,10.059-21.138
	C106.692,464.901,109.157,464.007,111.825,463.722z"/>
<path fill-rule="evenodd" clip-rule="evenodd" fill="none" d="M142.271,513.004c1.43,5.358,1.845,10.269,0.136,15.197
	c-0.399,1.152-0.95,2.204-2.026,2.871c-1.026,0.638-1.649,0.477-2.02-0.656c-0.295-0.899-0.584-1.877-0.533-2.801
	C138.108,522.534,139.758,517.857,142.271,513.004z"/>
<path fill-rule="evenodd" clip-rule="evenodd" fill="none" d="M194.218,422.553c-2.328,6.902-6.313,12.859-10.445,18.735
	C186.588,434.671,189.761,428.252,194.218,422.553z"/>
<path fill-rule="evenodd" clip-rule="evenodd" fill="none" d="M546.306,508.206c0.878,1.326,0.76,2.657,1.04,3.874
	c0.916,3.973,0.731,7.924-0.441,11.819c-0.469,1.557-1.131,3.011-2.899,3.538c-1.325,0.396-1.973,0.144-2.39-1.185
	c-0.382-1.213-0.667-2.472-0.587-3.768C541.279,518.434,543.586,512.1,546.306,508.206z"/>
<path fill-rule="evenodd" clip-rule="evenodd" fill="none" d="M531.566,444.442c3.139-10.014,5.785-20.208,10.696-29.577
	C539.418,424.983,535.857,434.843,531.566,444.442z"/>
</svg>
